#!OML:ASF E:\motion texture\Top Level 1\Subject 1\Session 1\male.ASF
:FULLY-SPECIFIED
:DEGREES
255
root 10.758 17.8096 4.43188 164.169 -85.7927 -159.584
lowerback -0.53813 0.905899 0.0985281
upperback 0.198701 1.1842 1.92628
thorax 0.466234 0.583623 1.92825
lowerneck -17.0904 -2.46021 -5.96608
upperneck -3.18718 -2.74513 10.428
head 2.01466 -1.10731 3.98263
rclavicle 1.45858e-014 -3.97569e-016
rhumerus -34.6259 41.3463 -108.963
rradius 61.9893
rwrist 4.67951
rhand -21.9432 -23.3107
rfingers 7.12502
rthumb 4.46365 -413.244
lclavicle 1.45858e-014 -3.97569e-016
lhumerus -32.3669 -19.1883 114.972
lradius 60.8657
lwrist 43.6572
lhand -8.19972 55.6809
lfingers 7.12502
lthumb 17.7167 84.8938
rfemur -27.1376 -2.8965 20.3358
rtibia 61.2265
rfoot 1.34342 -14.7353
rtoes 5.28292
lfemur -17.2158 -3.92714 -19.7724
ltibia 21.6456
lfoot -6.62189 3.11016
ltoes 3.24678
256
root 10.6251 17.8181 4.44027 165.386 -85.9544 -160.753
lowerback -0.464429 0.79279 -0.024703
upperback 0.207341 1.03558 1.91113
thorax 0.436728 0.509305 1.97955
lowerneck -16.8931 -2.37343 -5.93151
upperneck -3.45175 -2.6335 10.45
head 1.89688 -1.06448 3.99297
rclavicle -7.03201e-015 -1.03368e-014
rhumerus -35.0897 40.6914 -108.724
rradius 62.2105
rwrist 4.43969
rhand -21.352 -22.5442
rfingers 7.12502
rthumb 5.03444 -412.464
lclavicle -7.03201e-015 -1.03368e-014
lhumerus -32.7138 -19.4098 115.139
lradius 61.0572
lwrist 43.3684
lhand -7.83244 55.5935
lfingers 7.12502
lthumb 18.0701 84.7741
rfemur -27.9392 -2.97616 20.2167
rtibia 60.6721
rfoot 0.936747 -14.9091
rtoes 5.47388
lfemur -16.6621 -4.01145 -20.0676
ltibia 21.4402
lfoot -6.94989 3.05631
ltoes 3.27479
257
root 10.4931 17.8258 4.44813 166.616 -86.1164 -161.929
lowerback -0.396801 0.684125 -0.13747
upperback 0.213784 0.89252 1.89731
thorax 0.408859 0.437785 2.02677
lowerneck -16.6911 -2.2918 -5.90337
upperneck -3.72648 -2.52705 10.4766
head 1.77606 -1.02455 4.00528
rclavicle -4.17448e-015 -1.59028e-015
rhumerus -35.4779 39.9851 -108.417
rradius 62.4404
rwrist 4.14614
rhand -20.7506 -21.8484
rfingers 7.12502
rthumb 5.61515 -411.754
lclavicle -4.17448e-015 -1.59028e-015
lhumerus -33.0148 -19.6304 115.278
lradius 61.2744
lwrist 43.0127
lhand -7.46971 55.5232
lfingers 7.12502
lthumb 18.419 84.6712
rfemur -28.7078 -3.04578 20.102
rtibia 59.9876
rfoot 0.492502 -15.0644
rtoes 5.62996
lfemur -16.112 -4.09404 -20.3519
ltibia 21.2225
lfoot -7.27505 3.00672
ltoes 3.2773
258
root 10.3617 17.8328 4.45542 167.855 -86.2806 -163.109
lowerback -0.334102 0.579989 -0.240876
upperback 0.216775 0.755212 1.88519
thorax 0.380582 0.369179 2.0708
lowerneck -16.4782 -2.21485 -5.8794
upperneck -4.01403 -2.42555 10.5059
head 1.65038 -0.987674 4.01869
rclavicle 1.98785e-016 1.07344e-014
rhumerus -35.801 39.2269 -108.05
rradius 62.6759
rwrist 3.79628
rhand -20.1217 -21.2086
rfingers 7.12502
rthumb 6.22235 -411.097
lclavicle 1.98785e-016 1.07344e-014
lhumerus -33.275 -19.8476 115.391
lradius 61.5198
lwrist 42.5848
lhand -7.11431 55.4214
lfingers 7.12502
lthumb 18.7609 84.5367
rfemur -29.4409 -3.10709 19.9904
rtibia 59.1755
rfoot 0.0201105 -15.2004
rtoes 5.73202
lfemur -15.5663 -4.17381 -20.6253
ltibia 20.9957
lfoot -7.59912 2.95607
ltoes 3.26855
259
root 10.2309 17.8389 4.46216 169.088 -86.4459 -164.275
lowerback -0.278791 0.480689 -0.332415
upperback 0.217647 0.624055 1.87461
thorax 0.354571 0.303669 2.11008
lowerneck -16.256 -2.14232 -5.85953
upperneck -4.31517 -2.32864 10.5391
head 1.51985 -0.953674 4.03356
rclavicle 5.01931e-015 9.93923e-015
rhumerus -36.0647 38.4185 -107.631
rradius 62.9121
rwrist 3.38667
rhand -19.4548 -20.6423
rfingers 7.12502
rthumb 6.86616 -410.511
lclavicle 5.01931e-015 9.93923e-015
lhumerus -33.496 -20.0617 115.475
lradius 61.7987
lwrist 42.0748
lhand -6.75838 55.278
lfingers 7.12502
lthumb 19.1032 84.3598
rfemur -30.1375 -3.15848 19.8823
rtibia 58.2408
rfoot -0.473559 -15.3122
rtoes 5.76607
lfemur -15.0255 -4.24864 -20.8854
ltibia 20.762
lfoot -7.92201 2.90188
ltoes 3.23647
260
root 10.1007 17.8442 4.46833 170.307 -86.6141 -165.422
lowerback -0.227925 0.385412 -0.41214
upperback 0.214737 0.498058 1.86559
thorax 0.327419 0.240789 2.14457
lowerneck -16.0236 -2.0741 -5.84296
upperneck -4.62901 -2.23632 10.5749
head 1.38455 -0.922588 4.04944
rclavicle 6.95746e-016 1.98785e-014
rhumerus -36.2797 37.5657 -107.17
rradius 63.141
rwrist 2.91706
rhand -18.7843 -20.1349
rfingers 7.12502
rthumb 7.51339 -409.981
lclavicle 6.95746e-016 1.98785e-014
lhumerus -33.6774 -20.2696 115.53
lradius 62.1061
lwrist 41.4775
lhand -6.39732 55.1187
lfingers 7.12502
lthumb 19.4504 84.1659
rfemur -30.7966 -3.20176 19.7764
rtibia 57.1889
rfoot -0.974421 -15.3946
rtoes 5.7732
lfemur -14.4906 -4.31954 -21.132
ltibia 20.5232
lfoot -8.24361 2.84239
ltoes 3.18926
261
root 9.97095 17.8486 4.47395 171.518 -86.7853 -166.556
lowerback -0.182763 0.293919 -0.481696
upperback 0.211624 0.376866 1.85942
thorax 0.303407 0.180302 2.17651
lowerneck -15.7902 -2.01009 -5.83424
upperneck -4.95469 -2.14767 10.617
head 1.24617 -0.893645 4.06829
rclavicle -5.01931e-015 -1.03368e-014
rhumerus -36.447 36.6722 -106.67
rradius 63.3572
rwrist 2.38903
rhand -18.1164 -19.6935
rfingers 7.12502
rthumb 8.15802 -409.516
lclavicle -5.01931e-015 -1.03368e-014
lhumerus -33.8161 -20.4705 115.553
lradius 62.4442
lwrist 40.8067
lhand -6.04532 54.9226
lfingers 7.12502
lthumb 19.7888 83.9352
rfemur -31.4162 -3.23597 19.6712
rtibia 56.0253
rfoot -1.47825 -15.4447
rtoes 5.73306
lfemur -13.9608 -4.38531 -21.3653
ltibia 20.2809
lfoot -8.5628 2.77572
ltoes 3.13491
262
root 9.84156 17.852 4.47905 172.731 -86.9595 -167.688
lowerback -0.143417 0.206835 -0.53985
upperback 0.206754 0.261382 1.85494
thorax 0.280918 0.122687 2.20397
lowerneck -15.5493 -1.95053 -5.8255
upperneck -5.29362 -2.06424 10.6573
head 1.10316 -0.868082 4.08624
rclavicle -2.03754e-015 1.15295e-014
rhumerus -36.5744 35.7413 -106.138
rradius 63.5487
rwrist 1.82623
rhand -17.4701 -19.3304
rfingers 7.12502
rthumb 8.78174 -409.128
lclavicle -2.03754e-015 1.15295e-014
lhumerus -33.9133 -20.6651 115.545
lradius 62.8063
lwrist 40.0827
lhand -5.70553 54.6944
lfingers 7.12502
lthumb 20.1154 83.673
rfemur -31.9971 -3.26127 19.5651
rtibia 54.7585
rfoot -1.96599 -15.4601
rtoes 5.65239
lfemur -13.4373 -4.44617 -21.5855
ltibia 20.0373
lfoot -8.87951 2.70076
ltoes 3.07813
263
root 9.71248 17.8546 4.48359 173.976 -87.1409 -168.851
lowerback -0.105754 0.12322 -0.589462
upperback 0.199766 0.150423 1.85201
thorax 0.257238 0.0673684 2.22835
lowerneck -15.2999 -1.89547 -5.82013
upperneck -5.64593 -1.9856 10.6995
head 0.955408 -0.845579 4.10506
rclavicle -3.926e-015 1.27222e-014
rhumerus -36.6692 34.7692 -105.581
rradius 63.7126
rwrist 1.23124
rhand -16.8335 -19.0561
rfingers 7.12502
rthumb 9.39598 -408.827
lclavicle -3.926e-015 1.27222e-014
lhumerus -33.976 -20.8496 115.506
lradius 63.1936
lwrist 39.3062
lhand -5.37935 54.4328
lfingers 7.12502
lthumb 20.4289 83.3781
rfemur -32.5352 -3.28023 19.4546
rtibia 53.3953
rfoot -2.42245 -15.4481
rtoes 5.56221
lfemur -12.9176 -4.50446 -21.7954
ltibia 19.7946
lfoot -9.19417 2.61583
ltoes 3.02015
264
root 9.58365 17.856 4.48765 175.296 -87.3245 -170.083
lowerback -0.074237 0.0443828 -0.630436
upperback 0.191862 0.0457166 1.85068
thorax 0.235974 0.0151758 2.24967
lowerneck -15.049 -1.84551 -5.81865
upperneck -6.0085 -1.91251 10.7425
head 0.804938 -0.826297 4.12452
rclavicle 7.45443e-015 -7.95139e-016
rhumerus -36.7324 33.7585 -105
rradius 63.8462
rwrist 0.600243
rhand -16.2251 -18.8946
rfingers 7.12502
rthumb 9.98302 -408.638
lclavicle 7.45443e-015 -7.95139e-016
lhumerus -33.9965 -21.0187 115.431
lradius 63.5965
lwrist 38.473
lhand -5.04747 54.1749
lfingers 7.12502
lthumb 20.7478 83.0858
rfemur -33.0362 -3.28857 19.3387
rtibia 51.9463
rfoot -2.83909 -15.4126
rtoes 5.44757
lfemur -12.405 -4.55904 -21.9952
ltibia 19.5535
lfoot -9.50688 2.524
ltoes 2.96087
265
root 9.45498 17.8565 4.49117 176.77 -87.5105 -171.466
lowerback -0.0467481 -0.0292274 -0.666778
upperback 0.182811 -0.0520923 1.85117
thorax 0.215624 -0.0335629 2.27036
lowerneck -14.7956 -1.80084 -5.82363
upperneck -6.38224 -1.84481 10.7881
head 0.651398 -0.810131 4.14567
rclavicle 5.96354e-016 2.14687e-014
rhumerus -36.768 32.703 -104.395
rradius 63.9419
rwrist -0.0544856
rhand -15.6447 -18.8277
rfingers 7.12502
rthumb 10.5429 -408.543
lclavicle 5.96354e-016 2.14687e-014
lhumerus -33.9775 -21.1735 115.322
lradius 64.0102
lwrist 37.5762
lhand -4.70355 53.8993
lfingers 7.12502
lthumb 21.0782 82.7737
rfemur -33.5004 -3.28556 19.213
rtibia 50.4246
rfoot -3.21601 -15.3572
rtoes 5.31566
lfemur -11.8996 -4.60889 -22.1877
ltibia 19.3174
lfoot -9.81912 2.42408
ltoes 2.89776
266
root 9.32643 17.8557 4.49419 178.438 -87.6988 -173.04
lowerback -0.0260615 -0.0980673 -0.697887
upperback 0.173868 -0.143624 1.85327
thorax 0.19903 -0.0791885 2.28984
lowerneck -14.5453 -1.76165 -5.83161
upperneck -6.76395 -1.7834 10.8327
head 0.496488 -0.79744 4.16675
rclavicle 5.46658e-016 1.07344e-014
rhumerus -36.7778 31.6043 -103.769
rradius 63.9967
rwrist -0.734707
rhand -15.0866 -18.8579
rfingers 7.12502
rthumb 11.0812 -408.545
lclavicle 5.46658e-016 1.07344e-014
lhumerus -33.9168 -21.3095 115.175
lradius 64.4266
lwrist 36.606
lhand -4.38714 53.5508
lfingers 7.12502
lthumb 21.3822 82.391
rfemur -33.9308 -3.27133 19.077
rtibia 48.8428
rfoot -3.55491 -15.2841
rtoes 5.16108
lfemur -11.403 -4.65533 -22.3729
ltibia 19.0878
lfoot -10.1309 2.3167
ltoes 2.83248
267
root 9.19789 17.8539 4.4967 180.377 -87.8889 -174.88
lowerback -0.00849961 -0.161734 -0.724357
upperback 0.162923 -0.228288 1.85679
thorax 0.181917 -0.121358 2.30823
lowerneck -14.2938 -1.72729 -5.84595
upperneck -7.15469 -1.72696 10.8799
head 0.339278 -0.787545 4.18964
rclavicle 1.73937e-015 2.38542e-015
rhumerus -36.7701 30.4582 -103.125
rradius 64.0097
rwrist -1.45384
rhand -14.5635 -18.9881
rfingers 7.12502
rthumb 11.5857 -408.648
lclavicle 1.73937e-015 2.38542e-015
lhumerus -33.8213 -21.4228 114.992
lradius 64.8452
lwrist 35.5696
lhand -4.06654 53.1693
lfingers 7.12502
lthumb 21.6901 81.9742
rfemur -34.3274 -3.24556 18.9295
rtibia 47.2136
rfoot -3.84843 -15.1991
rtoes 4.97965
lfemur -10.914 -4.69817 -22.5514
ltibia 18.8649
lfoot -10.442 2.20104
ltoes 2.76278
268
root 9.06935 17.851 4.49867 182.722 -88.0817 -177.124
lowerback 0.00363665 -0.221039 -0.748832
upperback 0.15187 -0.307181 1.8617
thorax 0.167552 -0.160661 2.32697
lowerneck -14.044 -1.69754 -5.86379
upperneck -7.55366 -1.67571 10.9262
head 0.180345 -0.78057 4.21275
rclavicle -3.52843e-015 7.55382e-015
rhumerus -36.745 29.2654 -102.463
rradius 63.979
rwrist -2.21212
rhand -14.0715 -19.2187
rfingers 7.12502
rthumb 12.0601 -408.851
lclavicle -3.52843e-015 7.55382e-015
lhumerus -33.6908 -21.5084 114.77
lradius 65.2647
lwrist 34.4789
lhand -3.75988 52.7468
lfingers 7.12502
lthumb 21.9845 81.5174
rfemur -34.6926 -3.20956 18.7679
rtibia 45.5506
rfoot -4.10226 -15.1032
rtoes 4.77942
lfemur -10.4338 -4.73782 -22.7253
ltibia 18.6514
lfoot -10.753 2.07578
ltoes 2.68805
